<svg xmlns="http://www.w3.org/2000/svg" viewBox="0 0 520 380" role="img" aria-labelledby="title desc">
  <title id="title">Brake and oil service illustration</title>
  <desc id="desc">A brake rotor, oil drop, and small quote checklist used as a visual placeholder for the service page.</desc>
  <rect width="520" height="380" rx="22" fill="#181c24"/>
  <rect x="316" y="54" width="142" height="210" rx="18" fill="#f4f6f8"/>
  <rect x="342" y="94" width="90" height="10" rx="5" fill="#d7dfe9"/>
  <rect x="342" y="124" width="70" height="10" rx="5" fill="#d7dfe9"/>
  <rect x="342" y="154" width="96" height="10" rx="5" fill="#d7dfe9"/>
  <rect x="342" y="190" width="56" height="56" rx="28" fill="#ff3034"/>
  <path d="M370 205c12 13 18 22 18 30 0 10-8 18-18 18s-18-8-18-18c0-8 6-17 18-30Z" fill="#fff"/>
  <circle cx="198" cy="190" r="106" fill="#2a303b"/>
  <circle cx="198" cy="190" r="74" fill="#f4f6f8"/>
  <circle cx="198" cy="190" r="36" fill="#181c24"/>
  <g fill="#cfd7e3">
    <circle cx="198" cy="104" r="10"/>
    <circle cx="284" cy="190" r="10"/>
    <circle cx="198" cy="276" r="10"/>
    <circle cx="112" cy="190" r="10"/>
  </g>
  <path d="M122 108c45-45 119-45 164 0" fill="none" stroke="#ff3034" stroke-width="20" stroke-linecap="round"/>
  <rect x="70" y="292" width="380" height="30" rx="15" fill="#2a303b"/>
  <rect x="95" y="301" width="122" height="12" rx="6" fill="#ff3034"/>
</svg>
